<svg id="Camada_1" data-name="Camada 1" xmlns="http://www.w3.org/2000/svg" viewBox="0 0 103.88 103.39"><defs><style>.cls-1{fill:#ce7045;}.cls-2{fill:#e1aa56;}.cls-3{fill:#e1a956;}.cls-4{fill:#e1aa57;}.cls-5{fill:#ce7247;}.cls-6{fill:#ce8057;}.cls-7{fill:#c5724c;}</style></defs><title>Prancheta 2</title><path class="cls-1" d="M.14,51.54c0-4.17,0-8.34,0-12.52,0-1.81.64-2.48,2.39-2.81a13.58,13.58,0,0,1,2.9-.1c2.62.07,5.24-.1,7.85.12a15.37,15.37,0,0,1,9.43,4.37A14.42,14.42,0,0,1,27.28,49C28.93,59.3,20.9,67.13,12.94,67.42a94.56,94.56,0,0,1-10.25,0C.93,67.26.4,66.61.2,64.85a42.28,42.28,0,0,1-.08-4.51c0-2.94,0-5.87,0-8.81Zm7.55.29c0,2.45,0,4.9,0,7.35,0,.59.18.74.74.72,1.09,0,2.18-.05,3.27,0a8.31,8.31,0,0,0,8.15-7,8.21,8.21,0,0,0-6.24-8.91,30.75,30.75,0,0,0-5.44-.24c-.54,0-.47.35-.47.69Q7.69,48.11,7.69,51.83Z"/><path class="cls-1" d="M30.23,52q0-5.86,0-11.72a8.61,8.61,0,0,1,.2-2.17,2.19,2.19,0,0,1,1.69-1.71,9.14,9.14,0,0,1,2.23-.26H51a10.93,10.93,0,0,1,1.52.11,2.18,2.18,0,0,1,2.09,1.9,8.09,8.09,0,0,1,0,3.68,2.22,2.22,0,0,1-2.21,1.86c-.41,0-.82,0-1.24,0-4.2,0-8.4,0-12.59,0-.52,0-.73.09-.7.67.05,1,0,2,0,3.06,0,.54.17.63.66.62,2.69,0,5.39,0,8.08,0h.65a2.48,2.48,0,0,1,2.74,2.41,7.72,7.72,0,0,1,0,2.75c-.31,1.67-1,2.36-2.76,2.39q-4.26.07-8.52,0c-.71,0-.91.18-.86.88a21.1,21.1,0,0,1,0,2.69c0,.59.12.78.75.77,4,0,8,0,12,0,.58,0,1.17,0,1.75,0a2.26,2.26,0,0,1,2.25,1.91,8,8,0,0,1,0,3.75,2.16,2.16,0,0,1-2,1.77,12.06,12.06,0,0,1-1.45.12H33.43c-2.28-.12-3.17-1-3.18-3.26,0-4.1,0-8.2,0-12.3Z"/><path class="cls-1" d="M81.53,73.09a6.84,6.84,0,0,1,0,4.89,1.91,1.91,0,0,1-1.68,1.21,11.64,11.64,0,0,1-1.52.11c-4.2,0-8.4,0-12.59,0-.57,0-.76.15-.73.73,0,1,0,2,0,3,0,.49.16.6.62.6,2.69,0,5.39,0,8.08,0h.58c1.93.11,2.68.83,2.9,2.75a9.5,9.5,0,0,1,0,2.47,2.39,2.39,0,0,1-2.58,2.33q-4.37.07-8.73,0c-.62,0-.87.11-.83.78.06.94,0,1.89,0,2.84,0,.53.1.75.71.74,4.34,0,8.69,0,13,0,2.19,0,3.11.87,3.19,3A9,9,0,0,1,81.8,101a2.28,2.28,0,0,1-2,2,9.44,9.44,0,0,1-1.3.11H61a7.11,7.11,0,0,1-.73,0c-1.89-.2-2.67-1-2.79-2.88q-.06-1-.06-2,0-11,0-21.91c0-.6,0-1.21.09-1.81a2.53,2.53,0,0,1,2.63-2.7,12.17,12.17,0,0,1,1.38-.08h16.6c.17,0,.34,0,.5,0-.23.27-.55.15-.82.15H62c-.26,0-.56-.08-.78.27H80.66C80.83,72.62,81,73.06,81.53,73.09Z"/><path class="cls-1" d="M86.68.1a3.88,3.88,0,0,1,4,2.37l4.82,9.93L102,25.8c.14.28.26.57.39.86.88,1.93.57,3-1.24,4.07a6.26,6.26,0,0,1-3,1.12A2.18,2.18,0,0,1,96,30.7c-1-1.68-1.75-3.45-2.56-5.2a1.12,1.12,0,0,0-1.2-.76c-3.45,0-6.89,0-10.34,0a.87.87,0,0,0-.94.58q-1.12,2.4-2.31,4.77a2.62,2.62,0,0,1-3.72,1.46,8,8,0,0,1-2.64-1.5,2.21,2.21,0,0,1-.69-2.56,39.6,39.6,0,0,1,1.8-3.88Q78.51,12.95,83.67,2.3A3.61,3.61,0,0,1,86.68.1Zm.43,12.53c-.9,1.87-1.77,3.64-2.62,5.42-.2.41.15.36.37.36,1.45,0,2.9,0,4.35,0,.64,0,.69-.18.44-.69C88.81,16.09,88,14.42,87.11,12.62Z"/><path class="cls-1" d="M45.24,71.93a11.23,11.23,0,0,1,9.32,9.48c.46,3.76-.41,7.11-3.23,9.74a11.55,11.55,0,0,1-8.15,3.3c-1.53,0-3.06,0-4.59,0-.49,0-.63.15-.62.62,0,1.43,0,2.86,0,4.3,0,.36,0,.73,0,1.09a2.37,2.37,0,0,1-2.27,2.48,7.59,7.59,0,0,1-3.39-.09,2.12,2.12,0,0,1-1.77-2,13.57,13.57,0,0,1-.11-1.45q0-12.12,0-24.25s0-.1,0-.15c0-1.94.34-2.43,2.08-3.11.35.48.84.28,1.29.28H43A4.43,4.43,0,0,0,45.24,71.93ZM38,83.11c0,1,.05,2,0,3.06,0,.63.2.72.74.71,1.5,0,3,0,4.51,0a3.77,3.77,0,1,0,.12-7.54c-1.6,0-3.2,0-4.8,0-.48,0-.56.17-.55.59C38,81,38,82,38,83.11Z"/><path class="cls-2" d="M13.36.27H24.42a2,2,0,0,1,2.19,2.15q0,5.06,0,10.11a2,2,0,0,1-2.16,2.11H2.2A2,2,0,0,1,0,12.47q0-4.95,0-9.9A2.07,2.07,0,0,1,2.37.27Z"/><path class="cls-3" d="M74.06,36.1H85a2.06,2.06,0,0,1,2.3,2.28q0,4.95,0,9.9a2,2,0,0,1-2.14,2.21q-11.17,0-22.34,0a1.89,1.89,0,0,1-2.09-1.94q-.08-5.24,0-10.48a2,2,0,0,1,2.16-2H74.06Z"/><path class="cls-3" d="M29.26,17.33h11c1.6,0,2.27.69,2.27,2.31q0,4.91,0,9.82a2,2,0,0,1-2.23,2.25H18.38A2.11,2.11,0,0,1,16,29.32q0-4.91,0-9.82a2,2,0,0,1,2.16-2.16Z"/><path class="cls-1" d="M61.65,0h11.5a9.22,9.22,0,0,1,1,0c1.73.19,2.27.7,2.37,2.43.18,3.32-.53,3.76-3.42,3.77H66.2c-1,0-1,0-1,.94q0,8.55,0,17.11c0,1.5,0,3,0,4.51A2.28,2.28,0,0,1,63,31.35a8.29,8.29,0,0,1-3.25-.09,2.15,2.15,0,0,1-1.8-2.09c0-.41,0-.82,0-1.24,0-7,0-13.93,0-20.89,0-.65-.17-.81-.81-.81-2.67,0-5.34,0-8,0-1.85,0-2.5-.76-2.51-2.63a6.93,6.93,0,0,1,.18-2.17A1.59,1.59,0,0,1,48,.24,9.29,9.29,0,0,1,50,0Z"/><path class="cls-3" d="M12.91,89H23.11c1.6,0,2.37.63,2.4,2.24.06,3.37.05,6.75,0,10.12a2,2,0,0,1-2.13,2h-21a2,2,0,0,1-2.08-2.07q0-5.13,0-10.27A2,2,0,0,1,2.5,89H12.91Z"/><path class="cls-3" d="M12.91,86.33H2.57A2.07,2.07,0,0,1,.27,84q0-4.91,0-9.83a2.09,2.09,0,0,1,2.31-2.29h20.6a2.11,2.11,0,0,1,2.35,2.33c0,3.35,0,6.7-.06,10a1.9,1.9,0,0,1-2.15,2H12.91Z"/><path class="cls-2" d="M93.92,91.92c-.52-.05-1-.12-1.43-.14a2.07,2.07,0,0,1-2.05-2.25,8.37,8.37,0,0,1,.18-2.39,4.32,4.32,0,0,1,3-3,9.46,9.46,0,0,0,1.86-.8A2.91,2.91,0,0,0,97,79.79c-.36-1.31-1.31-2-3-2a4.9,4.9,0,0,0-1.93.32,2.09,2.09,0,0,0-1.44,1.6,4.24,4.24,0,0,1-.69,1.51,1.88,1.88,0,0,1-2.07.86,9.15,9.15,0,0,1-3-1.17,2.07,2.07,0,0,1-1-2.66,9.38,9.38,0,0,1,6.54-6.8c4.76-1.38,9.93,0,12.56,5a8.87,8.87,0,0,1-1,9.62,9.07,9.07,0,0,1-4,2.85c-.33.11-.52.23-.53.64-.06,1.5-.53,2-2,2.19C94.83,91.85,94.35,91.88,93.92,91.92Z"/><path class="cls-3" d="M103.09,60.53c0,1.77,0,3.54,0,5.31a1.89,1.89,0,0,1-2,2q-4.58,0-9.17,0a1.89,1.89,0,0,1-2.06-1.95q-.05-5.42,0-10.84a1.88,1.88,0,0,1,2-1.92q4.69,0,9.39,0a1.93,1.93,0,0,1,1.91,2C103.09,57,103.09,58.76,103.09,60.53Z"/><path class="cls-4" d="M74,60.27c0,1.62,0,3.25,0,4.87a2.11,2.11,0,0,1-2.39,2.41H63.14a2.12,2.12,0,0,1-2.4-2.41q0-4.84,0-9.67a2,2,0,0,1,2.33-2.31H71.8A2,2,0,0,1,74,55.4q0,2.44,0,4.87Z"/><path class="cls-4" d="M13.35,24.56c0,1.65,0,3.3,0,4.95a2.07,2.07,0,0,1-2.17,2.2H2.23A2.09,2.09,0,0,1,0,29.54q0-5,0-10a2,2,0,0,1,2.18-2.16h9.09a2,2,0,0,1,2.06,2.06C13.37,21.11,13.35,22.84,13.35,24.56Z"/><path class="cls-4" d="M42.46,7.47q0,2.47,0,4.95a2,2,0,0,1-2.14,2.21q-4.51,0-9,0a1.91,1.91,0,0,1-2-2q0-5.24,0-10.47a1.94,1.94,0,0,1,2-1.89h9.16a2,2,0,0,1,2,2C42.47,4,42.46,5.75,42.46,7.47Z"/><path class="cls-2" d="M90,43.27c0-1.67,0-3.35,0-5a2.05,2.05,0,0,1,2.14-2.15h8.66a2.11,2.11,0,0,1,2.41,2.4c0,1.79,0,3.59,0,5.38,0,1.43,0,2.86,0,4.29a2,2,0,0,1-2.33,2.32q-4.33,0-8.66,0A2,2,0,0,1,90,48.29C90,46.61,90,44.94,90,43.27Z"/><path class="cls-4" d="M81.75,53.17h4c1,0,1.39.4,1.4,1.36q0,2.58,0,5.16A1.16,1.16,0,0,1,85.85,61q-4.11,0-8.21,0a1.2,1.2,0,0,1-1.31-1.34q0-2.62,0-5.23a1.19,1.19,0,0,1,1.34-1.28h4.07Z"/><path class="cls-4" d="M93.76,103.1c-.39,0-.78,0-1.16,0a2.71,2.71,0,0,1-2.8-2.66,11.73,11.73,0,0,1,0-2.82,2.44,2.44,0,0,1,2.33-2.36,12.3,12.3,0,0,1,3.18,0,2.49,2.49,0,0,1,2.22,2.06,8.25,8.25,0,0,1,.11,3.38,2.53,2.53,0,0,1-2.55,2.4,13.05,13.05,0,0,1-1.38,0Z"/><path class="cls-1" d="M81.74,63.19h4c.92,0,1.36.4,1.4,1.29,0,.65,0,1.31,0,2a1.15,1.15,0,0,1-1.28,1.26q-4.11,0-8.22,0a1.17,1.17,0,0,1-1.3-1.25c0-.68,0-1.36,0-2a1.21,1.21,0,0,1,1.32-1.24Z"/><path class="cls-5" d="M98.59.1c1.09,0,2.18,0,3.28,0,.87,0,1.25.35,1.3,1.22a17.72,17.72,0,0,1,0,2,1.17,1.17,0,0,1-1.31,1.25q-3.24,0-6.48,0a1.2,1.2,0,0,1-1.3-1.34c0-.61,0-1.21,0-1.82,0-.94.39-1.33,1.32-1.34S97.52.1,98.59.1Z"/><path class="cls-6" d="M45.24,71.93a4.43,4.43,0,0,1-2.24.28H33.79c-.45,0-.94.2-1.29-.28a3.53,3.53,0,0,1,1.63-.24c3.32,0,6.65-.09,10,.05A2.58,2.58,0,0,1,45.24,71.93Z"/><path class="cls-7" d="M80.66,72.2H61.23c.22-.36.51-.27.78-.27H77.79c.28,0,.59.11.82-.15h.14a.36.36,0,0,0,.58,0A1.84,1.84,0,0,1,80.66,72.2Z"/><path class="cls-7" d="M81.53,73.09c-.56,0-.71-.47-.87-.89A1.18,1.18,0,0,1,81.53,73.09Z"/><path class="cls-1" d="M79.33,71.79a.36.36,0,0,1-.58,0Z"/></svg>