<svg id="Camada_1" data-name="Camada 1"
  xmlns="http://www.w3.org/2000/svg" viewBox="0 0 167.4 25.47">
  <defs>
    <style>.cls-1{fill:#124C7D;}.cls-2{fill:#41ACBD;}</style>
  </defs>
  <title>Tá de Pé?</title>
  <path class="cls-1" d="M74.61,14.75c0-2.6,0-5.2,0-7.8,0-1.9.49-2.42,2.39-2.39a47.32,47.32,0,0,1,7.07.16,10.16,10.16,0,0,1,8.38,11.9,10.41,10.41,0,0,1-10.14,8.58c-1.73,0-3.47,0-5.2,0-2,0-2.48-.55-2.49-2.54C74.6,20,74.61,17.38,74.61,14.75Zm5,.1h0c0,.9,0,1.8,0,2.69s-.4,2,.2,2.48,1.66.15,2.52.14a5.51,5.51,0,0,0,5.13-4,5.36,5.36,0,0,0-2.8-6c-1.38-.74-2.86-.48-4.3-.58-.61,0-.78.16-.77.75C79.63,11.8,79.61,13.33,79.61,14.86Z"/>
  <path class="cls-1" d="M94.41,14.89c0-2.57,0-5.14,0-7.72,0-2.09.5-2.61,2.59-2.62,3.74,0,7.48,0,11.22,0,.81,0,1.71,0,2.06.91A3.75,3.75,0,0,1,110,9c-.4.6-1.17.54-1.82.54-2.27,0-4.55,0-6.82,0-2,0-1.93,0-2,2,0,.69.19.86.85.84,1.58,0,3.17,0,4.76,0,.86,0,1.85,0,2.19,1a3.82,3.82,0,0,1-.26,3.45,1.68,1.68,0,0,1-1.54.55c-1.74,0-3.47,0-5.21,0-.56,0-.78.12-.78.74,0,2.12,0,2.12,2.06,2.12h7c1.36,0,1.82.4,2,1.75a5,5,0,0,1,.07,1c-.1,1.75-.65,2.26-2.4,2.26H96.85c-1.83,0-2.42-.57-2.44-2.4C94.39,20.16,94.41,17.52,94.41,14.89Z"/>
  <path class="cls-1" d="M141.71,17.32a4.69,4.69,0,0,1,.19,2.08c0,.57.12.76.74.75,2.63,0,5.26,0,7.9,0,.83,0,1.78-.1,2.19.84a3.84,3.84,0,0,1-.16,3.54c-.3.53-.9.55-1.44.57-1.14,0-2.27,0-3.41,0h-8.35c-2,0-2.49-.56-2.49-2.53q0-7.76,0-15.53c0-2,.54-2.56,2.55-2.57q5.7,0,11.4,0A2.08,2.08,0,0,1,153,6.56,4.38,4.38,0,0,1,152.93,8c-.27,1.08-.61,1.44-1.72,1.45-2.84,0-5.68.06-8.52,0-.65,0-.81.17-.8.79a3.54,3.54,0,0,1-.24,2h5.73a6.08,6.08,0,0,1,1.16.09,1.47,1.47,0,0,1,1.28,1.41c0,.21.06.42.07.62.06,2.21-.38,3-2.64,2.91C145.43,17.28,143.61,17.32,141.71,17.32Z"/>
  <path class="cls-1" d="M57.28,20.83c-1.08,0-2.15,0-3.23,0a.87.87,0,0,0-1,.59q-.63,1.43-1.36,2.82a1.82,1.82,0,0,1-2.68.95,7.49,7.49,0,0,1-.81-.38c-1.34-.75-1.6-1.49-.93-2.88q3.48-7.26,7-14.51c.25-.51.46-1,.75-1.53a2.51,2.51,0,0,1,2.28-1.33A2.24,2.24,0,0,1,59.48,5.9l6.29,12.95c.52,1.07,1,2.14,1.54,3.22a1.7,1.7,0,0,1-.76,2.57,6.36,6.36,0,0,1-1.36.67,1.65,1.65,0,0,1-2.29-.94c-.5-1-1-2-1.44-3a.86.86,0,0,0-1-.58C59.43,20.86,58.35,20.83,57.28,20.83Zm1.88-4.15-1.9-3.86c-.58,1.23-1.06,2.28-1.58,3.31-.18.35-.1.35.25.48C57,17,58,16.38,59.16,16.69Z"/>
  <path class="cls-1" d="M119.12,14.76q0-4,0-8.08c0-1.52.37-2.09,1.9-2.12,3.06-.08,6.18-.57,9.16.45A7.27,7.27,0,0,1,135,13.08a7.55,7.55,0,0,1-7.25,6.39,27.27,27.27,0,0,1-2.87,0c-.72-.06-.86.22-.81.85s0,1.5,0,2.24a2.11,2.11,0,0,1-1.4,2.39,3.35,3.35,0,0,1-3-.31c-.61-.39-.58-1.08-.59-1.7C119.11,20.21,119.12,17.49,119.12,14.76Zm5-2.8c0,.66,0,1.32,0,2,0,.39.13.52.51.51,1,0,1.92,0,2.87,0a2.42,2.42,0,0,0,2.62-2.36,2.45,2.45,0,0,0-2.5-2.6c-1,0-1.92,0-2.87,0-.46,0-.65.15-.63.62C124.11,10.71,124.09,11.34,124.1,12Z"/>
  <path class="cls-2" d="M19.24,15.88h7c1.28,0,1.75.46,1.76,1.7q0,3.05,0,6.11c0,1.13-.52,1.65-1.65,1.66H12.17c-1.2,0-1.69-.5-1.7-1.68,0-2.07,0-4.13,0-6.2,0-1.1.48-1.58,1.59-1.58C14.46,15.87,16.85,15.88,19.24,15.88Z"/>
  <path class="cls-2" d="M8.73,4.71h7.18c1.15,0,1.58.4,1.59,1.55q0,3.18,0,6.37A1.34,1.34,0,0,1,16,14.1H1.64C.44,14.1,0,13.69,0,12.49Q0,9.36,0,6.22c0-1.07.45-1.5,1.55-1.51H8.73Z"/>
  <path class="cls-1" d="M40.53,4.54h7.89c.7,0,1.47,0,1.73.81A3.09,3.09,0,0,1,50,8.11c-.34.5-1,.51-1.55.51-1.52,0-3.05.07-4.57,0-.87-.05-1,.29-1,1,0,4.37,0,8.73,0,13.1,0,.83.13,1.79-.82,2.19a3.78,3.78,0,0,1-3.38-.08c-.64-.35-.66-1.09-.67-1.76,0-1.61,0-3.23,0-4.84,0-2.9,0-5.8,0-8.7,0-.69-.2-.93-.91-.9-1.52.05-3,0-4.57,0-.66,0-1.42,0-1.72-.7a3.08,3.08,0,0,1,.08-2.85c.34-.57,1-.53,1.63-.53Z"/>
  <path class="cls-2" d="M160.74,4a6.38,6.38,0,0,1,6.65,6.74,5.44,5.44,0,0,1-3.25,4.78,1.79,1.79,0,0,0-1.1,1.23c-.38,1.35-1.62.9-2.58,1s-1.57-.13-1.83-1.07a3.18,3.18,0,0,1,2.19-4c.84-.29,1.71-.59,2-1.57a1.87,1.87,0,0,0-1.27-2.47,2.37,2.37,0,0,0-3,1.47c-.52,1.26-1.1,1.53-2.37,1.07-2.33-.83-2.64-1.75-1.36-3.89A6.41,6.41,0,0,1,160.74,4Z"/>
  <path class="cls-2" d="M0,20.58c0-1.08,0-2.15,0-3.23a1.32,1.32,0,0,1,1.5-1.47c1.91,0,3.82,0,5.74,0,1,0,1.51.52,1.51,1.56q0,3.09,0,6.18c0,1.22-.46,1.7-1.67,1.71q-2.73,0-5.47,0C.4,25.32,0,24.89,0,23.62c0-.51,0-1,0-1.52S0,21.08,0,20.58Z"/>
  <path class="cls-2" d="M27.89,9.47c0,1,0,2.09,0,3.14s-.44,1.47-1.47,1.48q-2.87,0-5.75,0a1.29,1.29,0,0,1-1.44-1.44q0-3.23,0-6.46c0-1,.47-1.49,1.48-1.49q2.83,0,5.66,0c1.08,0,1.46.37,1.5,1.44s0,2.21,0,3.32Z"/>
  <path class="cls-2" d="M163.43,22.84c-.07.68,0,1.68-1.06,2.06-1.24.45-2.64.65-3.66-.3s-.71-2.26-.44-3.48c.22-1,1.06-1.1,1.86-1.24a3,3,0,0,1,.45,0C162.78,19.81,163.44,20.45,163.43,22.84Z"/>
  <path class="cls-1" d="M61.49,2.95h-.81c-1.25,0-1.37-.14-1.37-1.41S59.45,0,60.85,0c.69,0,1.38,0,2.06,0a.84.84,0,0,1,1,.84,5.47,5.47,0,0,1,0,.9c0,1-.26,1.21-1.22,1.22H61.49Z"/>
  <path class="cls-1" d="M150.51,3h-.18c-2.2,0-2,.05-2-2.1a.73.73,0,0,1,.8-.85c1,0,1.91,0,2.87,0a.69.69,0,0,1,.76.7,12.54,12.54,0,0,1,0,1.43.76.76,0,0,1-.93.82C151.41,2.93,151,3,150.51,3Z"/>
</svg>
