<svg width="512" height="512" xmlns="http://www.w3.org/2000/svg" xmlns:svg="http://www.w3.org/2000/svg">
 <defs>
  <style>.cls-1{fill:#124C7D;}.cls-2{fill:#41ACBD;}.cls-3{fill:#41ACBD;}.cls-4{fill:#41ACBD;}.cls-5{fill:#124C7D;}.cls-6{fill:#124C7D;}.cls-7{fill:#124C7D;}</style>
  <pattern id="gridpattern" patternUnits="userSpaceOnUse" x="0" y="0" width="100" height="100">
   <image id="svg_27" x="0" y="0" width="100" height="100"/>
  </pattern>
 </defs>
 <title>Tá de Pé</title>
 <g>
  <title>Logo</title>
  <g stroke="null" id="svg_26">
   <path stroke="null" id="svg_1" d="m6.36177,255.34811c0,-20.08697 0,-40.17395 0,-60.3091c0,-8.7188 3.08289,-11.94622 11.51268,-13.53583a65.41514,65.41514 0 0 1 13.96936,-0.48171c12.62058,0.33718 25.24119,-0.48171 37.81362,0.57804a74.03761,74.03761 0 0 1 45.42449,21.05037a69.46143,69.46143 0 0 1 22.01379,40.46298c7.94808,49.61531 -30.73259,87.33258 -69.07607,88.72951a455.49747,455.49747 0 0 1 -49.37446,0c-8.47796,-0.77072 -11.03097,-3.90179 -11.99439,-12.37975a203.66363,203.66363 0 0 1 -0.38536,-21.72476c0,-14.16204 0,-28.27591 0,-42.43795l0.09635,0.04818l-0.00002,0.00002zm36.27216,1.34876c0,11.80169 0,23.6034 0,35.40509c0,2.84204 0.86707,3.5646 3.5646,3.46825c5.25054,0 10.50111,-0.24085 15.75165,0a40.02945,40.02945 0 0 0 39.25873,-33.71915a39.54774,39.54774 0 0 0 -30.0582,-42.91966a148.12339,148.12339 0 0 0 -26.20459,-1.15608c-2.60118,0 -2.264,1.68596 -2.264,3.32375q0.04818,17.72665 0.04818,35.64595l-0.09635,-0.04818l-0.00002,0.00002z" class="cls-1"/>
   <path stroke="null" id="svg_2" d="m151.30591,257.56393q0,-28.22773 0,-56.45549a41.47455,41.47455 0 0 1 0.9634,-10.45293a10.54928,10.54928 0 0 1 8.14076,-8.23711a44.02756,44.02756 0 0 1 10.74196,-1.25243l80.20339,0a52.65003,52.65003 0 0 1 7.32186,0.52986a10.50111,10.50111 0 0 1 10.06758,9.15233a38.9697,38.9697 0 0 1 0,17.72665a10.69379,10.69379 0 0 1 -10.64561,8.95965c-1.97497,0 -3.94996,0 -5.97311,0c-20.23148,0 -40.46298,0 -60.64628,0c-2.50486,0 -3.51643,0.43353 -3.37192,3.2274c0.24085,4.81703 0,9.63404 0,14.74008c0,2.60118 0.81889,3.03472 3.17922,2.98654c12.95779,0 25.96373,0 38.92152,0l3.13107,0a11.94622,11.94622 0 0 1 13.19864,11.60901a37.18741,37.18741 0 0 1 0,13.2468c-1.49328,8.04443 -4.81703,11.36818 -13.29497,11.51268q-20.52051,0.33718 -41.04102,0c-3.42008,0 -4.3835,0.86707 -4.14264,4.23897a101.63913,101.63913 0 0 1 0,12.95779c0,2.84204 0.57804,3.75728 3.61276,3.70911c19.26808,0 38.53616,0 57.80424,0c2.79386,0 5.63592,0 8.42979,0a10.88647,10.88647 0 0 1 10.83829,9.20051a38.53616,38.53616 0 0 1 0,18.06383a10.40476,10.40476 0 0 1 -9.63404,8.52612a58.09327,58.09327 0 0 1 -6.98468,0.57804l-85.40578,0c-10.9828,-0.57804 -15.26997,-4.81703 -15.31812,-15.70348c0,-19.74979 0,-39.49956 0,-59.24935l-0.09635,0.38536l0.00004,0.00007z" class="cls-1"/>
   <path stroke="null" id="svg_3" d="m398.41907,359.1549a32.94841,32.94841 0 0 1 0,23.55523a9.20051,9.20051 0 0 1 -8.0926,5.8286a56.07013,56.07013 0 0 1 -7.32186,0.52986c-20.23148,0 -40.46298,0 -60.64628,0c-2.74571,0 -3.66093,0.72254 -3.51643,3.51643c0,4.81703 0,9.63404 0,14.45107c0,2.36033 0.77072,2.89021 2.98654,2.89021c12.95779,0 25.96373,0 38.92152,0l2.79386,0c9.29686,0.52986 12.90961,3.99814 13.96936,13.2468a45.7617,45.7617 0 0 1 0,11.89804a11.51268,11.51268 0 0 1 -12.4279,11.22365q-21.05037,0.33718 -42.05259,0c-2.98654,0 -4.19082,0.52986 -3.99814,3.75728c0.28903,4.528 0,9.10418 0,13.68033c0,2.55303 0.48171,3.61276 3.42008,3.5646c20.90587,0 41.85991,0 62.62128,0c10.54928,0 14.98094,4.19082 15.36629,14.45107a43.35319,43.35319 0 0 1 -0.72254,11.84987a10.9828,10.9828 0 0 1 -9.63404,9.63404a45.47267,45.47267 0 0 1 -6.26212,0.52986l-84.29786,0a34.24902,34.24902 0 0 1 -3.51643,0c-9.10418,-0.9634 -12.86144,-4.81703 -13.43948,-13.87301q-0.28903,-4.81703 -0.28903,-9.63404q0,-52.98723 0,-105.54091c0,-2.89021 0,-5.8286 0.43353,-8.7188a12.18707,12.18707 0 0 1 12.66876,-13.00596a58.62314,58.62314 0 0 1 6.6475,-0.38536l79.96254,0c0.81889,0 1.63779,0 2.4085,0c-1.10792,1.3006 -2.64936,0.72254 -3.94996,0.72254l-76.10893,0c-1.25243,0 -2.69753,-0.38536 -3.75728,1.3006l93.64287,0c0.81889,2.264 1.63779,4.3835 4.19082,4.528l0.00002,-0.00002z" class="cls-1"/>
   <path stroke="null" id="svg_4" d="m423.22672,7.56056a18.69004,18.69004 0 0 1 19.26808,11.41633l23.21804,47.83302l31.31063,64.54807c0.67439,1.34876 1.25243,2.74571 1.87864,4.14264c4.23897,9.29686 2.74571,14.45107 -5.97311,19.60526a30.15455,30.15455 0 0 1 -14.45107,5.39507a10.50111,10.50111 0 0 1 -10.35658,-5.53957c-4.81703,-8.0926 -8.42979,-16.61872 -12.33158,-25.04851a5.39507,5.39507 0 0 0 -5.78043,-3.66093c-16.61872,0 -33.18927,0 -49.80799,0a4.19082,4.19082 0 0 0 -4.528,2.79386q-5.39507,11.56086 -11.12732,22.97719a12.62058,12.62058 0 0 1 -17.91932,7.03286a38.53616,38.53616 0 0 1 -12.71693,-7.22554a10.64561,10.64561 0 0 1 -3.32375,-12.33158a190.75402,190.75402 0 0 1 8.67064,-18.69004q24.61498,-51.34945 49.47081,-102.6507a17.38944,17.38944 0 0 1 14.49923,-10.59744l0.00002,0zm2.07132,60.35727c-4.33532,9.00783 -8.52612,17.53394 -12.62058,26.10826c-0.9634,1.97497 0.72254,1.73414 1.78229,1.73414c6.98468,0 13.96936,0 20.95404,0c3.08289,0 3.32375,-0.86707 2.1195,-3.32375c-4.04629,-7.85175 -7.94808,-15.89616 -12.23522,-24.5668l0,0.04818l-0.00002,-0.00002z" class="cls-1"/>
   <path stroke="null" id="svg_5" d="m223.60938,353.56716a54.09514,54.09514 0 0 1 44.89463,45.66535c2.21583,18.112 -1.97497,34.24902 -15.55897,46.91778a55.63659,55.63659 0 0 1 -39.25873,15.89616c-7.37004,0 -14.74008,0 -22.11012,0c-2.36033,0 -3.03472,0.72254 -2.98654,2.98654c0,6.88833 0,13.77668 0,20.71319c0,1.73414 0,3.51643 0,5.25054a11.41633,11.41633 0 0 1 -10.93464,11.94622a36.56119,36.56119 0 0 1 -16.32969,-0.43353a10.21208,10.21208 0 0 1 -8.52612,-9.63404a65.36696,65.36696 0 0 1 -0.52986,-6.98468q0,-58.38228 0,-116.81274s0,-0.48171 0,-0.72254c0,-9.34501 1.63779,-11.70536 10.0194,-14.98094c1.68596,2.31218 4.04629,1.34876 6.21396,1.34876l44.31659,0a21.3394,21.3394 0 0 0 10.79012,-1.15608l-0.00002,0.00002zm-34.87523,53.85428c0,4.81703 0.24085,9.63404 0,14.74008c0,3.03472 0.9634,3.46825 3.5646,3.42008c7.22554,0 14.45107,0 21.72476,0a18.16016,18.16016 0 1 0 0.57804,-36.32034c-7.70722,0 -15.41447,0 -23.12169,0c-2.31218,0 -2.69753,0.81889 -2.64936,2.84204c-0.09635,5.15421 -0.09635,9.97122 -0.09635,15.31812l0,0.00002z" class="cls-1"/>
   <path stroke="null" fill="black" id="svg_6" d="m70.04277,8.37946l53.27624,0a9.63404,9.63404 0 0 1 10.54928,10.35658q0,24.37412 0,48.70009a9.63404,9.63404 0 0 1 -10.40476,10.1639l-107.1787,0a9.63404,9.63404 0 0 1 -10.59744,-10.45293q0,-23.84426 0,-47.68849a9.97122,9.97122 0 0 1 11.41633,-11.07915l52.93906,0l-0.00002,0z" class="cls-2"/>
   <path stroke="null" id="svg_7" d="m362.43591,180.97332l52.6982,0a9.92307,9.92307 0 0 1 11.07915,10.9828q0,23.84426 0,47.68849a9.63404,9.63404 0 0 1 -10.30843,10.64561q-53.80613,0 -107.61223,0a9.10418,9.10418 0 0 1 -10.06758,-9.34501q-0.38536,-25.24119 0,-50.48238a9.63404,9.63404 0 0 1 10.40476,-9.63404l53.80613,0l0,0.1445l0,0.00002z" class="cls-3"/>
   <path stroke="null" id="svg_8" d="m146.63341,90.55784l52.98723,0c7.70722,0 10.93464,3.32375 10.93464,11.12732q0,23.65158 0,47.30313a9.63404,9.63404 0 0 1 -10.74196,10.83829l-105.58909,0a10.1639,10.1639 0 0 1 -11.46451,-11.51268q0,-23.65158 0,-47.30313a9.63404,9.63404 0 0 1 10.40476,-10.40476l53.46892,-0.04818z" class="cls-3"/>
   <path stroke="null" id="svg_9" d="m302.6567,7.07888l55.39574,0a44.41292,44.41292 0 0 1 4.81703,0c8.33344,0.91524 10.93464,3.37192 11.41633,11.70536c0.86707,15.99251 -2.55303,18.112 -16.47422,18.16016l-33.23744,0c-4.81703,0 -4.81703,0 -4.81703,4.528q0,41.18552 0,82.41922c0,7.22554 0,14.45107 0,21.72476a10.9828,10.9828 0 0 1 -10.59744,12.47608a39.93309,39.93309 0 0 1 -15.65532,-0.43353a10.35658,10.35658 0 0 1 -8.67064,-10.06758c0,-1.97497 0,-3.94996 0,-5.97311c0,-33.71915 0,-67.1011 0,-100.62755c0,-3.13107 -0.81889,-3.90179 -3.90179,-3.90179c-12.86144,0 -25.7229,0 -38.53616,0c-8.9115,0 -12.04255,-3.66093 -12.09072,-12.66876a33.38195,33.38195 0 0 1 0.86707,-10.45293a7.65907,7.65907 0 0 1 5.73225,-5.73225a44.75013,44.75013 0 0 1 9.63404,-1.15608l56.11828,0l0.00002,0z" class="cls-1"/>
   <path stroke="null" id="svg_10" d="m67.87512,435.7937l49.1336,0c7.70722,0 11.41633,3.03472 11.56086,10.79012c0.28903,16.23336 0.24085,32.51488 0,48.74824a9.63404,9.63404 0 0 1 -10.26025,9.63404l-101.15744,0a9.63404,9.63404 0 0 1 -10.0194,-9.97122q0,-24.7113 0,-49.47081a9.63404,9.63404 0 0 1 10.59744,-9.73039l50.14517,0l0.00002,0.00002z" class="cls-3"/>
   <path stroke="null" id="svg_11" d="m67.87512,422.93226l-49.80799,0a9.97122,9.97122 0 0 1 -11.07915,-11.22365q0,-23.65158 0,-47.35131a10.06758,10.06758 0 0 1 11.12732,-11.03097l99.23062,0a10.1639,10.1639 0 0 1 11.32,11.22365c0,16.13701 0,32.27405 -0.28903,48.1702a9.15233,9.15233 0 0 1 -10.35658,9.63404l-50.14517,0l0,0.57804l-0.00002,0z" class="cls-3"/>
   <path stroke="null" id="svg_12" d="m458.10195,449.85939c-2.50486,-0.24085 -4.81703,-0.57804 -6.88833,-0.67439a9.97122,9.97122 0 0 1 -9.8749,-10.83829a40.31845,40.31845 0 0 1 0.86707,-11.51268a20.80954,20.80954 0 0 1 14.45107,-14.45107a45.56902,45.56902 0 0 0 8.95965,-3.85361a14.01754,14.01754 0 0 0 7.32186,-17.10043c-1.73414,-6.31029 -6.31029,-9.63404 -14.45107,-9.63404a23.6034,23.6034 0 0 0 -9.29686,1.54144a10.06758,10.06758 0 0 0 -6.93651,7.70722a20.42416,20.42416 0 0 1 -3.32375,7.27371a9.056,9.056 0 0 1 -9.97122,4.14264a44.07574,44.07574 0 0 1 -14.45107,-5.63592a9.97122,9.97122 0 0 1 -4.81703,-12.81329a45.18366,45.18366 0 0 1 31.50331,-32.75573c22.92901,-6.6475 47.83302,0 60.50178,24.08511a42.72698,42.72698 0 0 1 -4.81703,46.33974a43.69038,43.69038 0 0 1 -19.26808,13.72851c-1.58961,0.52986 -2.50486,1.10792 -2.55303,3.08289c-0.28903,7.22554 -2.55303,9.63404 -9.63404,10.54928c-2.93839,0.48171 -5.25054,0.62621 -7.32186,0.81889l0.00004,0.00002z" class="cls-2"/>
   <path stroke="null" id="svg_13" d="m502.27402,298.65313c0,8.52612 0,17.05226 0,25.57837a9.10418,9.10418 0 0 1 -9.63404,9.63404q-22.06194,0 -44.17209,0a9.10418,9.10418 0 0 1 -9.92307,-9.39319q-0.24085,-26.10826 0,-52.21649a9.056,9.056 0 0 1 9.63404,-9.24868q22.59183,0 45.23181,0a9.29686,9.29686 0 0 1 9.20051,9.63404c-0.33718,9.00783 -0.33718,17.48579 -0.33718,26.01191l0.00002,0z" class="cls-3"/>
   <path stroke="null" id="svg_14" d="m362.1469,297.4007c0,7.80357 0,15.65532 0,23.4589a10.1639,10.1639 0 0 1 -11.51268,11.60901l-40.80016,0a10.21208,10.21208 0 0 1 -11.56086,-11.60901q0,-23.31437 0,-46.58059a9.63404,9.63404 0 0 1 11.22365,-11.12732l42.05259,0a9.63404,9.63404 0 0 1 10.59744,10.79012q0,11.75354 0,23.4589l0.00002,0z" class="cls-4"/>
   <path stroke="null" id="svg_15" d="m69.99459,125.3849c0,7.94808 0,15.89616 0,23.84426a9.97122,9.97122 0 0 1 -10.45293,10.59744l-43.11234,0a10.06758,10.06758 0 0 1 -10.74196,-10.45293q0,-24.08511 0,-48.1702a9.63404,9.63404 0 0 1 10.50111,-10.40476l43.78671,0a9.63404,9.63404 0 0 1 9.92307,9.92307c0.19268,8.04443 0.09635,16.37787 0.09635,24.66315l0,-0.00002z" class="cls-4"/>
   <path stroke="null" fill="black" id="svg_16" d="m210.21808,43.06201q0,11.89804 0,23.84426a9.63404,9.63404 0 0 1 -10.30843,10.64561q-21.72476,0 -43.35319,0a9.20051,9.20051 0 0 1 -9.63404,-9.63404q0,-25.24119 0,-50.4342a9.34501,9.34501 0 0 1 9.63404,-9.10418l44.12391,0a9.63404,9.63404 0 0 1 9.63404,9.63404c-0.04818,8.33344 -0.09635,16.76323 -0.09635,25.04851l0.00002,0z" class="cls-4"/>
   <path stroke="null" id="svg_17" d="m439.21923,215.51134c0,-8.04443 0,-16.13701 0,-24.08511a9.8749,9.8749 0 0 1 10.30843,-10.35658l41.71541,0a10.1639,10.1639 0 0 1 11.60901,11.56086c0,8.62247 0,17.29311 0,25.91558c0,6.88833 0,13.77668 0,20.66501a9.63404,9.63404 0 0 1 -11.22365,11.1755q-20.85769,0 -41.71541,0a9.63404,9.63404 0 0 1 -10.69379,-10.69379c0,-8.0926 0,-16.13701 0,-24.18144l0,-0.00002z" class="cls-2"/>
   <path stroke="null" id="svg_18" d="m399.47881,263.19986l19.26808,0c4.81703,0 6.69565,1.92682 6.74383,6.55115q0,12.4279 0,24.85583a5.58775,5.58775 0 0 1 -6.26212,6.31029q-19.79794,0 -39.54774,0a5.78043,5.78043 0 0 1 -6.31029,-6.45482q0,-12.62058 0,-25.19301a5.73225,5.73225 0 0 1 6.45482,-6.16579l19.60526,0l0.04818,0.09635l-0.00002,0z" class="cls-4"/>
   <path stroke="null" id="svg_19" d="m457.33121,503.71369c-1.87864,0 -3.75728,0 -5.58775,0a13.05412,13.05412 0 0 1 -13.48765,-12.81329a56.50364,56.50364 0 0 1 0,-13.584a11.75354,11.75354 0 0 1 11.22365,-11.36818a59.24935,59.24935 0 0 1 15.31812,0a11.99439,11.99439 0 0 1 10.69379,9.92307a39.74041,39.74041 0 0 1 0.52986,16.28154a12.18707,12.18707 0 0 1 -12.2834,11.56086a62.86211,62.86211 0 0 1 -6.6475,0l0.24085,0l0.00002,0z" class="cls-4"/>
   <path stroke="null" id="svg_20" d="m399.43064,311.46639l19.26808,0c4.43165,0 6.55115,1.92682 6.74383,6.21396c0,3.13107 0,6.31029 0,9.63404a5.53957,5.53957 0 0 1 -6.16579,6.06944q-19.79794,0 -39.59591,0a5.63592,5.63592 0 0 1 -6.26212,-6.02128c0,-3.27557 0,-6.55115 0,-9.63404a5.8286,5.8286 0 0 1 6.35847,-5.97311l19.65344,-0.28903l0,0.00002z" class="cls-1"/>
   <path stroke="null" id="svg_21" d="m480.59743,7.56056c5.25054,0 10.50111,0 15.79983,0c4.19082,0 6.02128,1.68596 6.26212,5.87676a85.35761,85.35761 0 0 1 0,9.63404a5.63592,5.63592 0 0 1 -6.31029,6.02128q-15.60715,0 -31.2143,0a5.78043,5.78043 0 0 1 -6.26212,-6.45482c0,-2.93839 0,-5.8286 0,-8.76697c0,-4.528 1.87864,-6.40664 6.35847,-6.45482s10.21208,0.1445 15.36629,0.1445l0,0.00002z" class="cls-5"/>
   <path stroke="null" id="svg_22" d="m223.60938,353.56716a21.3394,21.3394 0 0 1 -10.79012,1.34876l-44.36477,0c-2.16765,0 -4.528,0.9634 -6.21396,-1.34876a17.00408,17.00408 0 0 1 7.85175,-1.15608c15.99251,0 32.03319,-0.43353 48.1702,0.24085a12.4279,12.4279 0 0 1 5.34689,0.91524l0,-0.00002z" class="cls-6"/>
   <path stroke="null" fill="black" id="svg_23" d="m394.22825,354.86776l-93.59472,0c1.05975,-1.73414 2.45668,-1.3006 3.75728,-1.3006l76.01258,0c1.34876,0 2.84204,0.52986 3.94996,-0.72254l0.67439,0a1.73414,1.73414 0 0 0 2.79386,0a8.86332,8.86332 0 0 1 6.40664,2.02315z" class="cls-7"/>
   <path stroke="null" id="svg_24" d="m398.41907,359.1549c-2.69753,0 -3.42008,-2.264 -4.19082,-4.28715a5.68408,5.68408 0 0 1 4.19082,4.28715z" class="cls-7"/>
   <path stroke="null" id="svg_25" d="m387.82161,352.89277a1.73414,1.73414 0 0 1 -2.79386,0l2.79386,0z" class="cls-1"/>
  </g>
 </g>
</svg>
